<svg width="20" height="21" viewBox="0 0 20 21" fill="none" xmlns="http://www.w3.org/2000/svg">
<path id="Union" fill-rule="evenodd" clip-rule="evenodd" d="M13.5996 15.4524C13.8925 15.7453 14.3674 15.7453 14.6603 15.4524C14.9532 15.1595 14.9532 14.6846 14.6603 14.3917L10.5411 10.2726L14.6192 6.19451C14.9121 5.90161 14.9121 5.42674 14.6192 5.13385C14.3263 4.84095 13.8514 4.84095 13.5585 5.13385L9.48044 9.21191L5.82143 5.55291C5.52854 5.26001 5.05366 5.26001 4.76077 5.55291C4.46788 5.8458 4.46788 6.32067 4.76077 6.61357L8.41978 10.2726L4.71967 13.9727C4.42677 14.2656 4.42677 14.7404 4.71967 15.0333C5.01256 15.3262 5.48743 15.3262 5.78033 15.0333L9.48044 11.3332L13.5996 15.4524Z" fill="black" fill-opacity="0.55"/>
</svg>
