<svg width="23" height="23" viewBox="0 0 23 23" fill="none" xmlns="http://www.w3.org/2000/svg">
<path id="Union" fill-rule="evenodd" clip-rule="evenodd" d="M16.3 16.934C16.4953 17.1293 16.8119 17.1293 17.0071 16.934C17.2024 16.7387 17.2024 16.4221 17.0071 16.2269L11.7038 10.9236L16.617 6.01041C16.8123 5.81514 16.8123 5.49856 16.617 5.3033C16.4217 5.10804 16.1052 5.10804 15.9099 5.3033L10.9967 10.2165L6.40053 5.62028C6.20527 5.42502 5.88869 5.42502 5.69343 5.62028C5.49817 5.81555 5.49817 6.13213 5.69343 6.32739L10.2896 10.9236L5.3033 15.9099C5.10804 16.1052 5.10804 16.4217 5.3033 16.617C5.49857 16.8123 5.81515 16.8123 6.01041 16.617L10.9967 11.6307L16.3 16.934Z" fill="black" fill-opacity="0.75"/>
</svg>
